<?xml version="1.0" encoding="UTF-8"?><svg id="Layer_1" xmlns="http://www.w3.org/2000/svg" viewBox="0 0 358.77 304.28"><defs><style>.cls-1{fill:#00356b;stroke:#fff;stroke-miterlimit:10;stroke-width:4px;}</style></defs><path class="cls-1" d="M22.27,269.98v16.8h220.78v-16.8c0-13.28-10.77-24.05-24.05-24.05H46.33c-13.28,0-24.05,10.77-24.05,24.05h0Z"/><path class="cls-1" d="M102.93,165.27c-6.68,0-13.03-1.46-18.73-4.09l21.32,70.79h118.92l-79.53-95.51c-6.51,16.84-22.87,28.81-41.97,28.81h0Z"/><path class="cls-1" d="M70.88,120.29c0,17.71,14.35,32.06,32.06,32.06s32.06-14.35,32.06-32.06-14.35-32.06-32.06-32.06-32.06,14.35-32.06,32.06h0Z"/><path class="cls-1" d="M231.68,18.43c-14.28,0-25.85,11.57-25.85,25.85s11.57,25.85,25.85,25.85,25.85-11.57,25.85-25.85-11.57-25.85-25.85-25.85h0Z"/><path class="cls-1" d="M102.93,75.3c22.9,0,41.86,17.2,44.63,39.37l56.35-43.35c-6.81-7-11.01-16.54-11.01-27.05,0-4.35.72-8.54,2.05-12.45l-96.04,43.65c1.32-.12,2.66-.18,4.02-.18h0Z"/><path class="cls-1" d="M240.72,81.99l21.38,20.52c6.77-9.28,17.73-15.32,30.08-15.32h.1l-23.04-33.23c-3.58,13.83-14.6,24.69-28.52,28.02h0Z"/><path class="cls-1" d="M292.18,100.12c-13.42,0-24.3,10.88-24.3,24.3,0,5.23,1.66,10.07,4.47,14.03l-20.59,16.28c-2.88,2.28-4.63,5.69-4.8,9.35-.17,3.67,1.25,7.22,3.91,9.76l17.58,16.78c1.25,1.2,2.86,1.79,4.46,1.79,1.7,0,3.41-.67,4.68-2,2.46-2.58,2.37-6.67-.21-9.14l-17.37-16.58,22.66-17.91c2.92,1.25,6.14,1.94,9.52,1.94s6.53-.68,9.43-1.9l22.61,17.87-17.37,16.58c-2.58,2.46-2.68,6.56-.21,9.14,1.27,1.33,2.97,2,4.68,2,1.6,0,3.21-.59,4.46-1.79l17.58-16.78c2.66-2.53,4.08-6.09,3.91-9.76-.17-3.67-1.92-7.08-4.8-9.35l-20.5-16.2c2.84-3.98,4.52-8.85,4.52-14.11,0-13.42-10.88-24.3-24.3-24.3h0Z"/></svg>